<?xml version="1.0" encoding="UTF-8"?>
<svg width="515px" height="435px" viewBox="0 0 515 435" version="1.1" xmlns="http://www.w3.org/2000/svg" xmlns:xlink="http://www.w3.org/1999/xlink">
    <g stroke="none" stroke-width="1" fill="none" fill-rule="evenodd">
        <path d="M461.9293,16.0177 C451.0288,19.4778 412.8991,43.5844 389.9902,61.4994 C327.0506,110.7191 260.1424,180.0617 204.3497,253.8944 C186.9943,276.8614 169.4828,302.6021 164.242,312.85 C159.1313,322.8433 149.9101,329.4833 121.0789,343.9306 C70.5563,369.2475 42.58052,372.669 22.58561,355.9765 C12.55275,347.6007 11.44165,333.4654 19.09695,311.5949 C48.00204,229.0155 161.4172,113.9373 264.4759,62.6177 C282.1915,53.796 313.8848,43.2705 322.7323,43.2705 C331.814,43.2705 337.4619,48.2098 335.5657,54.4941 C330.1362,72.488 290.9178,120.8003 248.5505,161.6861 C168.8326,238.6165 136.6864,265.4211 124.1434,265.4211 C122.3135,265.4211 120.9163,267.2358 120.9163,269.6126 C120.9163,274.7658 123.7348,274.8201 134.5388,269.875 C142.0116,266.4546 179.4811,237.6035 184.837,231.146 C185.9897,229.7562 197.3068,219.2529 209.9861,207.8053 C259.8655,162.7714 311.725,107.8446 330.1024,80.5848 C347.7246,54.4452 345.4257,36.9832 324.3621,36.9832 C290.1834,36.9832 225.7372,70.2559 164.9273,119.2971 C137.8708,141.1173 96.7979,180.4646 79.9623,200.6924 C22.97869,269.1575 -4.0323,331.1558 12.46072,355.6285 C15.05423,359.4768 21.72612,364.9668 27.28713,367.8286 C35.679,372.147 40.21397,373.0013 53.95959,372.8528 C63.4846,372.7499 75.2165,371.1385 81.5723,369.0602 C96.4331,364.2007 125.1593,350.7917 134.9245,344.1561 C148.1474,335.1709 149.5514,337.5888 139.6391,352.2761 C129.515,367.2772 110.4375,409.045 110.4375,416.2095 C110.4375,421.2556 111.6383,423.1634 115.8133,424.7507 C135.7821,432.3428 163.275,420.8313 258.1886,365.137 C272.0206,357.0205 285.2239,349.3588 287.5293,348.111 C303.4216,339.5087 458.6001,247.5713 473.4393,237.9663 C494.5848,224.2794 467.1039,236.0586 432.6084,255.4677 C409.4136,268.5183 352.4451,301.5833 345.1627,306.2218 C341.1284,308.7915 327.4535,316.8736 314.7741,324.1821 C302.0948,331.4905 282.7614,342.7788 271.8111,349.2672 C260.8607,355.7556 245.2997,364.6781 237.231,369.0951 C229.1623,373.5121 219.2599,379.1766 215.2255,381.6828 C197.5404,392.6692 166.0044,408.5439 152.4725,413.2717 C135.041,419.3619 116.7248,420.2637 116.7248,415.0318 C116.7248,411.2717 146.6475,350.6944 155.1862,337.1683 C158.9608,331.1889 165.3168,325.8164 175.8792,319.6774 C207.4593,301.3225 303.0878,234.3429 347.043,199.7918 C404.8739,154.3337 471.2673,90.891 488.851,64.2863 C507.3876,36.2398 512.1361,17.7604 502.733,10.2622 C498.351,6.7679 486.4629,7.096 476.1477,10.996 C471.537,12.7392 465.1387,14.999 461.9293,16.0177 Z M499.4878,16.4896 C502.0434,20.6247 500.4803,30.4002 495.7639,39.7777 C491.3308,48.5922 476.2593,71.669 472.1072,75.9999 C424.547,125.6084 394.819,152.9586 346.4457,191.6103 C313.9117,217.606 177.7567,313.6235 173.4282,313.6235 C169.6908,313.6235 170.9424,309.8963 177.0983,302.6937 C180.3344,298.9074 191.8498,283.5494 202.6881,268.5647 C213.5264,253.58 223.0455,240.8483 223.8416,240.2719 C224.6376,239.6956 229.4287,233.891 234.4883,227.3728 C268.2207,183.9163 334.0412,116.1503 377.8372,79.7868 C391.8393,68.1609 422.4631,45.6519 434.335,38.2599 C464.1654,19.6862 495.0793,9.3565 499.4878,16.4896" stroke-width="16" stroke="black" fill="black"></path>
    </g>
    <style>
        @media (prefers-color-scheme: dark) {
            path {
                fill: white;
                stroke: white;
            }
        }
    </style>
</svg>